<svg version="1.1" xmlns="http://www.w3.org/2000/svg" viewBox="0 0 597 627" preserveAspectRatio="xMidYMid meet">
    <defs>
        <linearGradient id="RedBlueGradient" x1="0%" y1="0%" x2="100%" y2="0%">
            <stop offset="0%" style="stop-color:rgb(255,0,0);stop-opacity:1" /> <stop offset="100%" style="stop-color:rgb(0,0,255);stop-opacity:1" /> </linearGradient>
    </defs>
    
<path d="M0,0 L10,0 L15,4 L18,9 L18,12 L20,12 L28,28 L32,36 L32,39 L34,39 L39,50 L39,52 L41,52 L46,62 L46,64 L48,64 L54,79 L56,83 L56,92 L55,96 L53,96 L52,101 L48,107 L46,108 L41,119 L39,119 L39,134 L42,135 L46,139 L50,141 L50,143 L68,144 L77,143 L77,141 L84,137 L85,133 L85,122 L82,107 L81,104 L85,90 L88,85 L93,80 L102,72 L111,66 L113,66 L114,63 L119,61 L123,57 L129,55 L129,53 L135,51 L144,52 L149,57 L153,80 L154,81 L157,107 L157,122 L154,129 L152,129 L150,134 L147,135 L147,137 L142,141 L138,145 L137,148 L137,159 L143,170 L149,173 L149,175 L158,176 L169,176 L177,175 L177,173 L182,170 L185,164 L186,142 L187,137 L189,137 L190,132 L193,127 L197,126 L198,123 L211,117 L220,115 L225,115 L225,113 L234,111 L246,111 L250,113 L250,116 L252,116 L253,118 L253,127 L252,129 L250,129 L249,136 L245,148 L241,157 L238,166 L236,166 L235,172 L231,184 L229,184 L228,190 L224,203 L222,203 L219,215 L217,221 L215,221 L214,227 L210,239 L208,239 L208,247 L214,250 L218,254 L226,261 L233,270 L236,275 L236,277 L238,277 L243,287 L243,290 L245,290 L250,305 L250,308 L252,308 L257,329 L257,334 L259,334 L264,358 L264,363 L266,363 L272,395 L274,400 L278,421 L278,426 L280,426 L286,457 L288,463 L293,487 L295,492 L300,515 L300,580 L295,592 L287,604 L285,604 L283,608 L279,610 L279,612 L275,615 L273,615 L273,617 L264,621 L262,621 L262,623 L255,626 L250,627 L204,627 L195,623 L195,621 L190,620 L185,617 L185,615 L181,613 L178,612 L174,607 L169,602 L163,595 L160,590 L160,588 L158,588 L151,576 L145,565 L140,557 L139,553 L137,553 L132,542 L132,539 L130,539 L125,530 L125,528 L121,526 L118,521 L108,514 L108,512 L98,509 L92,506 L72,503 L72,501 L37,502 L36,503 L-64,504 L-84,505 L-91,506 L-91,508 L-99,512 L-101,512 L-102,515 L-110,522 L-115,527 L-120,536 L-123,539 L-127,549 L-129,549 L-130,554 L-134,563 L-136,563 L-138,568 L-141,574 L-144,577 L-148,585 L-150,585 L-152,591 L-155,596 L-158,599 L-165,607 L-169,612 L-175,616 L-183,621 L-194,626 L-199,627 L-245,627 L-255,623 L-265,617 L-265,615 L-270,613 L-278,606 L-282,601 L-282,598 L-285,597 L-293,581 L-297,564 L-297,537 L-292,512 L-291,508 L-289,508 L-288,498 L-284,480 L-280,464 L-277,449 L-275,449 L-274,438 L-270,419 L-268,413 L-263,388 L-261,388 L-260,377 L-256,356 L-254,356 L-253,344 L-249,323 L-247,323 L-246,314 L-242,301 L-237,290 L-235,285 L-233,285 L-232,281 L-228,274 L-226,274 L-225,270 L-215,258 L-212,257 L-207,252 L-205,252 L-204,249 L-198,247 L-198,243 L-200,243 L-205,229 L-205,226 L-207,226 L-213,208 L-217,199 L-219,193 L-219,189 L-221,189 L-226,174 L-226,171 L-228,171 L-234,153 L-238,144 L-240,138 L-240,134 L-242,134 L-245,124 L-244,117 L-239,112 L-238,111 L-226,111 L-217,113 L-217,115 L-208,116 L-199,119 L-199,121 L-194,122 L-190,124 L-190,126 L-186,128 L-181,133 L-177,143 L-177,161 L-174,168 L-172,171 L-167,173 L-167,175 L-154,177 L-142,175 L-142,173 L-135,169 L-131,164 L-128,157 L-128,151 L-135,139 L-138,137 L-138,135 L-142,133 L-146,129 L-149,123 L-149,107 L-144,72 L-143,71 L-141,58 L-138,53 L-131,51 L-123,52 L-116,57 L-112,59 L-112,61 L-106,63 L-101,67 L-91,75 L-91,77 L-87,79 L-82,84 L-80,88 L-77,91 L-74,99 L-73,103 L-73,111 L-77,125 L-77,133 L-73,139 L-69,141 L-69,143 L-62,144 L-48,144 L-41,141 L-35,137 L-32,132 L-29,123 L-31,123 L-36,112 L-40,108 L-43,103 L-43,101 L-45,101 L-47,96 L-47,82 L-45,77 L-43,77 L-42,72 L-38,63 L-35,58 L-30,48 L-24,36 L-22,36 L-20,29 L-17,23 L-15,23 L-14,18 L-8,7 L-3,1 Z M3,36 L-3,46 L-9,58 L-18,74 L-22,83 L-23,88 L-20,94 L-18,94 L-17,97 L-15,97 L-13,102 L-8,112 L-7,118 L-7,128 L-8,138 L-10,138 L-15,148 L-21,155 L-25,157 L-28,160 L-38,165 L-47,167 L-62,167 L-77,165 L-77,163 L-87,158 L-92,152 L-95,150 L-98,141 L-100,134 L-100,120 L-98,115 L-97,105 L-100,100 L-108,93 L-118,84 L-123,83 L-124,84 L-126,99 L-126,109 L-124,117 L-117,124 L-112,130 L-108,140 L-106,140 L-106,163 L-111,176 L-119,185 L-119,187 L-124,189 L-125,192 L-134,195 L-141,198 L-147,199 L-164,199 L-176,196 L-183,192 L-184,190 L-189,187 L-191,183 L-194,181 L-199,171 L-200,167 L-201,147 L-206,141 L-212,138 L-215,138 L-214,144 L-209,155 L-207,162 L-205,162 L-203,171 L-199,181 L-194,195 L-188,210 L-183,221 L-179,234 L-176,241 L-174,247 L-174,256 L-178,260 L-181,261 L-181,263 L-187,265 L-192,269 L-197,274 L-202,279 L-207,283 L-212,292 L-215,297 L-220,309 L-223,317 L-227,334 L-229,341 L-234,367 L-236,372 L-241,398 L-243,405 L-247,424 L-247,429 L-249,429 L-255,458 L-259,474 L-261,485 L-261,490 L-263,490 L-268,513 L-268,517 L-270,517 L-274,537 L-275,545 L-275,556 L-273,568 L-270,576 L-268,576 L-266,582 L-263,587 L-258,592 L-253,597 L-244,603 L-235,607 L-229,608 L-214,608 L-204,606 L-204,604 L-198,603 L-194,601 L-194,599 L-190,598 L-180,590 L-174,583 L-167,573 L-165,569 L-163,568 L-153,547 L-151,541 L-149,541 L-144,530 L-144,528 L-142,528 L-137,519 L-137,517 L-135,517 L-129,508 L-121,500 L-117,497 L-117,495 L-112,493 L-110,492 L-110,490 L-104,488 L-99,486 L-99,484 L-86,482 L-67,481 L-61,480 L54,480 L88,482 L101,484 L106,484 L106,486 L116,491 L126,498 L135,506 L141,513 L145,520 L147,521 L152,531 L154,531 L157,540 L159,544 L161,544 L162,549 L166,557 L168,557 L170,563 L173,569 L175,569 L177,575 L181,581 L187,590 L192,595 L198,599 L202,602 L207,604 L211,604 L211,606 L218,607 L239,607 L246,606 L246,604 L252,603 L263,596 L271,587 L271,585 L274,584 L279,574 L281,570 L283,559 L283,545 L280,528 L278,528 L277,518 L273,498 L271,498 L269,482 L266,468 L264,468 L263,457 L259,438 L257,433 L252,407 L250,400 L245,375 L243,370 L238,343 L236,343 L235,333 L231,317 L227,308 L224,299 L222,299 L220,293 L217,287 L214,284 L207,276 L203,271 L197,267 L191,263 L188,263 L188,261 L183,258 L181,251 L187,233 L187,230 L189,230 L195,213 L201,197 L207,182 L212,170 L216,158 L220,148 L223,139 L214,142 L210,145 L209,162 L207,168 L204,177 L200,183 L196,188 L192,190 L191,192 L180,197 L170,199 L153,199 L142,196 L133,190 L129,187 L127,187 L125,183 L119,174 L115,166 L114,161 L114,148 L117,136 L123,126 L123,124 L127,122 L133,117 L135,109 L133,87 L132,81 L128,81 L125,84 L121,86 L119,89 L114,92 L108,99 L105,108 L108,122 L108,135 L106,144 L104,148 L100,152 L100,154 L95,156 L94,159 L88,161 L80,165 L70,167 L55,167 L43,165 L43,163 L33,158 L27,151 L23,148 L20,141 L18,141 L16,132 L16,114 L18,105 L20,105 L25,97 L28,94 L30,90 L30,83 L27,76 L25,76 L22,67 L20,62 L18,62 L15,53 L10,45 L6,36 Z " fill="url(#RedBlueGradient)" transform="translate(297,0)"/>
<path d="M0,0 L20,0 L31,2 L31,4 L39,5 L45,8 L56,14 L67,22 L70,24 L70,26 L74,28 L81,35 L89,46 L95,55 L100,61 L102,65 L104,66 L107,71 L109,76 L113,78 L116,83 L119,86 L123,92 L128,97 L133,100 L133,102 L143,105 L149,107 L155,107 L169,102 L171,102 L171,100 L178,96 L179,94 L181,94 L182,91 L185,91 L188,100 L188,118 L184,128 L181,135 L176,140 L171,144 L168,147 L157,152 L151,153 L137,153 L128,151 L119,146 L116,143 L111,138 L107,133 L100,121 L92,108 L86,98 L81,89 L74,76 L68,66 L66,65 L63,60 L58,55 L54,50 L51,48 L51,46 L47,44 L43,42 L43,40 L37,38 L34,35 L22,31 L14,28 L8,27 L-174,27 L-173,23 L-164,20 L-156,19 L-155,18 L-130,15 L-117,14 L-110,12 L-78,9 L-58,6 L-24,3 L-23,2 Z " fill="url(#RedBlueGradient)" transform="translate(382,444)"/>
<path d="M0,0 L6,0 L8,1 L7,5 L-13,8 L-22,9 L-23,10 L-56,14 L-70,17 L-90,20 L-96,22 L-123,26 L-124,27 L-147,31 L-159,35 L-164,36 L-164,38 L-169,41 L-171,41 L-172,44 L-180,51 L-186,59 L-190,68 L-194,77 L-198,108 L-199,110 L-203,156 L-205,177 L-206,178 L-212,238 L-213,240 L-218,293 L-219,304 L-220,306 L-220,318 L-214,332 L-214,334 L-211,335 L-205,342 L-205,345 L-221,344 L-223,343 L-223,341 L-229,340 L-239,332 L-244,326 L-250,314 L-251,310 L-251,293 L-249,283 L-247,277 L-242,252 L-240,246 L-235,222 L-233,216 L-228,191 L-226,191 L-225,181 L-221,161 L-219,155 L-214,130 L-212,130 L-211,121 L-207,98 L-205,98 L-204,87 L-200,68 L-197,60 L-193,50 L-191,50 L-188,41 L-180,32 L-176,28 L-165,21 L-162,21 L-162,19 L-149,13 L-146,12 L-103,9 L-101,8 L-44,4 L-42,3 Z " fill="url(#RedBlueGradient)" transform="translate(297,247)"/>
<path d="M0,0 L11,0 L18,3 L22,10 L22,12 L24,12 L25,16 L25,45 L28,44 L50,44 L59,47 L66,51 L69,59 L69,67 L66,74 L64,74 L64,76 L57,79 L52,81 L26,82 L25,107 L23,114 L20,120 L17,123 L14,123 L14,125 L8,126 L2,125 L2,123 L-3,122 L-8,117 L-11,107 L-11,81 L-37,81 L-44,79 L-51,76 L-56,69 L-56,58 L-51,50 L-48,48 L-45,48 L-45,46 L-36,44 L-14,44 L-11,45 L-11,18 L-8,6 L-5,5 L-4,2 Z " fill="url(#RedBlueGradient)" transform="translate(167,318)"/>
<path d="M0,0 L53,0 L55,1 L93,3 L130,6 L151,8 L199,11 L200,12 L230,14 L230,17 L214,18 L82,17 L-52,17 L-56,18 L-77,19 L-76,14 L-66,12 L-61,10 L-35,4 L-21,2 L-2,1 Z " fill="url(#RedBlueGradient)" transform="translate(235,217)"/>
<path d="M0,0 L3,0 L11,13 L14,16 L18,24 L18,26 L21,27 L26,39 L29,46 L33,58 L36,67 L40,85 L42,92 L47,129 L48,130 L54,176 L55,177 L61,223 L62,224 L62,229 L58,228 L54,212 L51,200 L47,183 L45,178 L40,155 L38,149 L33,127 L31,122 L26,99 L24,93 L19,70 L17,65 L12,41 L5,18 L1,9 Z " fill="url(#RedBlueGradient)" transform="translate(480,271)"/>
<path d="M0,0 L12,2 L15,4 L15,6 L19,8 L22,14 L22,28 L19,34 L15,36 L14,39 L5,42 L-5,41 L-12,38 L-12,36 L-16,34 L-19,26 L-19,18 L-16,9 L-11,4 L-9,2 Z " fill="url(#RedBlueGradient)" transform="translate(427,317)"/>
<path d="M0,0 L6,0 L16,4 L22,10 L25,18 L25,24 L20,36 L16,38 L13,41 L10,42 L-2,42 L-8,40 L-11,37 L-14,34 L-17,27 L-17,18 L-14,9 L-10,7 L-8,3 Z " fill="url(#RedBlueGradient)" transform="translate(383,359)"/>
<path d="M0,0 L6,0 L15,4 L21,9 L25,19 L24,23 L21,33 L16,38 L14,38 L14,40 L9,42 L-3,42 L-8,40 L-14,35 L-17,28 L-17,15 L-13,7 L-11,7 L-10,4 Z " fill="url(#RedBlueGradient)" transform="translate(468,359)"/>
<path d="M0,0 L9,1 L20,7 L24,15 L24,28 L20,36 L11,42 L8,43 L0,43 L-3,42 L-3,40 L-9,39 L-14,34 L-17,26 L-17,19 L-14,10 L-9,5 L-7,3 L-3,3 L-3,1 Z " fill="url(#RedBlueGradient)" transform="translate(425,401)"/>
<path d="M0,0 L6,0 L8,1 L7,5 L-13,8 L-22,9 L-23,10 L-56,14 L-70,17 L-90,20 L-96,22 L-123,26 L-124,27 L-147,31 L-159,35 L-164,36 L-164,38 L-169,41 L-171,41 L-172,44 L-180,51 L-186,59 L-190,68 L-194,77 L-198,108 L-199,110 L-203,156 L-205,177 L-206,178 L-212,238 L-213,240 L-218,293 L-219,304 L-220,306 L-220,318 L-214,332 L-214,334 L-216,334 L-222,321 L-223,317 L-223,305 L-214,224 L-208,170 L-203,119 L-200,89 L-196,72 L-191,61 L-185,51 L-175,41 L-164,34 L-157,30 L-141,27 L-134,25 L-114,21 L-113,20 L-97,18 L-76,15 L-63,12 L-20,5 L-2,3 Z " fill="url(#RedBlueGradient)" transform="translate(297,247)"/>
<path d="M0,0 L2,2 L7,13 L10,23 L15,35 L20,46 L24,59 L27,66 L29,72 L29,81 L24,86 L21,86 L21,88 L13,93 L7,97 L0,105 L-3,108 L-5,108 L-6,112 L-10,118 L-15,129 L-19,138 L-24,159 L-26,166 L-31,192 L-33,197 L-38,223 L-40,230 L-45,254 L-47,254 L-48,264 L-52,283 L-56,299 L-59,315 L-61,315 L-62,324 L-66,342 L-68,342 L-69,351 L-72,370 L-72,381 L-70,393 L-68,398 L-68,401 L-66,401 L-61,411 L-56,416 L-54,420 L-49,422 L-47,425 L-52,424 L-63,413 L-68,403 L-70,401 L-74,389 L-75,384 L-75,365 L-72,349 L-65,323 L-55,280 L-47,244 L-38,205 L-24,142 L-18,126 L-11,113 L-3,103 L5,94 L20,84 L25,81 L26,79 L26,71 L18,50 L9,26 L5,16 L0,3 Z " fill="url(#RedBlueGradient)" transform="translate(95,175)"/>
<path d="M0,0 L46,0 L55,2 L73,7 L80,11 L88,17 L93,22 L95,28 L91,26 L88,21 L78,14 L78,12 L68,9 L62,6 L42,3 L42,1 L7,2 L6,3 L-94,4 L-114,5 L-121,6 L-121,8 L-129,12 L-131,12 L-132,15 L-140,22 L-145,27 L-150,36 L-153,39 L-157,49 L-159,49 L-160,54 L-164,63 L-166,63 L-168,68 L-171,74 L-174,77 L-178,85 L-180,85 L-182,91 L-185,96 L-188,99 L-195,107 L-199,112 L-205,116 L-213,121 L-224,126 L-229,127 L-242,127 L-242,126 L-228,124 L-219,120 L-202,110 L-192,99 L-182,84 L-171,66 L-162,51 L-154,35 L-147,25 L-139,16 L-126,6 L-118,2 L-109,1 Z " fill="url(#RedBlueGradient)" transform="translate(327,500)"/>
<path d="M0,0 L2,0 L2,2 L24,0 L306,0 L306,3 L290,4 L158,3 L24,3 L20,4 L-1,5 Z " fill="url(#RedBlueGradient)" transform="translate(159,231)"/>
<path d="M0,0 L2,1 L161,1 L183,2 L196,7 L203,10 L205,12 L196,10 L185,6 L179,5 L-3,5 L-2,1 Z " fill="url(#RedBlueGradient)" transform="translate(211,466)"/>
<path d="M0,0 L2,2 L7,13 L10,23 L15,35 L20,46 L24,59 L27,66 L29,72 L29,81 L24,86 L21,86 L21,88 L13,93 L7,97 L0,105 L-3,108 L-5,108 L-6,112 L-10,118 L-15,129 L-19,138 L-24,159 L-26,166 L-31,192 L-35,200 L-36,196 L-24,142 L-18,126 L-11,113 L-3,103 L5,94 L20,84 L25,81 L26,79 L26,71 L18,50 L9,26 L5,16 L0,3 Z " fill="url(#RedBlueGradient)" transform="translate(95,175)"/>
<path d="M0,0 L5,4 L7,10 L9,10 L14,20 L14,23 L16,23 L21,38 L21,41 L23,41 L28,62 L28,67 L30,67 L35,91 L35,96 L37,96 L43,128 L45,133 L49,154 L49,159 L51,159 L57,190 L59,196 L64,220 L66,225 L71,248 L71,256 L69,256 L67,242 L60,214 L53,182 L46,152 L33,94 L29,75 L25,59 L20,42 L14,26 L7,12 L0,2 Z " fill="url(#RedBlueGradient)" transform="translate(526,267)"/>
<path d="M0,0 L6,0 L8,1 L7,5 L-13,8 L-22,9 L-23,10 L-56,14 L-70,17 L-90,20 L-96,22 L-133,27 L-140,27 L-140,26 L-114,21 L-113,20 L-97,18 L-76,15 L-63,12 L-20,5 L-2,3 Z " fill="url(#RedBlueGradient)" transform="translate(297,247)"/>
<path d="M0,0 L1,0 L1,13 L-2,49 L-5,80 L-6,82 L-11,135 L-12,146 L-13,148 L-13,160 L-7,174 L-7,176 L-9,176 L-15,163 L-16,159 L-16,147 L-7,66 L-1,12 Z " fill="url(#RedBlueGradient)" transform="translate(90,405)"/>
<path d="M0,0 L3,0 L3,3 L0,3 L-1,6 L-7,8 L-9,12 L-13,14 L-17,19 L-19,19 L-22,31 L-19,44 L-19,57 L-21,66 L-24,71 L-26,71 L-28,76 L-33,79 L-37,83 L-48,88 L-58,90 L-73,90 L-85,87 L-85,85 L-73,87 L-59,87 L-47,84 L-35,77 L-28,70 L-24,64 L-22,58 L-22,42 L-25,32 L-25,26 L-20,17 L-10,8 Z " fill="url(#RedBlueGradient)" transform="translate(425,78)"/>
<path d="M0,0 L2,2 L4,9 L4,27 L0,37 L-3,44 L-8,49 L-13,53 L-16,56 L-27,61 L-33,62 L-47,62 L-56,60 L-65,55 L-68,52 L-73,47 L-77,42 L-80,35 L-76,37 L-70,45 L-62,54 L-50,58 L-34,58 L-27,57 L-15,51 L-8,44 L-3,35 L-1,30 L1,25 L1,10 Z " fill="url(#RedBlueGradient)" transform="translate(566,535)"/>
<path d="M0,0 L2,2 L6,15 L10,33 L12,40 L17,77 L18,78 L24,124 L25,125 L31,171 L32,172 L32,177 L28,176 L28,167 L21,119 L18,99 L15,85 L14,74 L13,71 L11,51 L7,31 L2,10 L0,5 Z " fill="url(#RedBlueGradient)" transform="translate(510,323)"/>
<path d="M0,0 L2,0 L3,2 L3,11 L2,13 L0,13 L-1,20 L-5,32 L-9,41 L-12,50 L-14,50 L-15,56 L-19,68 L-21,68 L-22,74 L-26,87 L-28,87 L-31,99 L-33,105 L-35,105 L-36,111 L-40,123 L-42,123 L-43,131 L-45,130 L-44,123 L-41,115 L-37,106 L-34,97 L-31,89 L-26,76 L-22,67 L-18,55 L-14,45 L-8,29 L-4,19 L0,10 Z " fill="url(#RedBlueGradient)" transform="translate(547,116)"/>
<path d="M0,0 L4,2 L8,12 L8,14 L10,14 L11,19 L11,37 L6,50 L-3,61 L-8,64 L-11,67 L-22,72 L-31,74 L-48,74 L-60,71 L-68,66 L-65,65 L-57,69 L-47,71 L-33,71 L-21,68 L-12,63 L-4,56 L-2,56 L0,52 L6,40 L8,32 L8,23 L5,10 L0,2 Z " fill="url(#RedBlueGradient)" transform="translate(181,126)"/>
<path d="M0,0 L5,2 L8,10 L8,18 L5,25 L3,25 L3,27 L-4,30 L-9,32 L-35,33 L-36,58 L-38,65 L-41,71 L-44,74 L-47,74 L-47,76 L-53,77 L-59,76 L-59,74 L-49,73 L-42,67 L-40,62 L-39,55 L-38,29 L-9,28 L-1,25 L5,18 L5,9 L3,4 Z " fill="url(#RedBlueGradient)" transform="translate(228,367)"/>
<path d="M0,0 L2,0 L8,8 L13,18 L14,24 L14,34 L12,44 L10,44 L8,50 L4,56 L-1,62 L-4,63 L-8,67 L-18,72 L-27,74 L-42,74 L-57,71 L-57,69 L-62,68 L-70,62 L-72,58 L-64,64 L-53,69 L-46,71 L-25,71 L-15,67 L-2,58 L6,47 L10,37 L11,33 L11,24 L8,14 L2,4 Z " fill="url(#RedBlueGradient)" transform="translate(277,94)"/>
<path d="M0,0 L4,0 L4,2 L-5,6 L-8,8 L-9,25 L-11,31 L-14,40 L-18,46 L-23,52 L-26,53 L-28,56 L-39,61 L-49,63 L-66,63 L-77,60 L-86,54 L-87,52 L-81,54 L-81,56 L-64,60 L-49,60 L-35,56 L-32,55 L-32,53 L-23,47 L-18,40 L-16,40 L-15,36 L-13,28 L-12,8 L-7,3 Z " fill="url(#RedBlueGradient)" transform="translate(516,137)"/>
<path d="M0,0 L5,3 L8,15 L10,28 L11,29 L14,55 L14,70 L11,77 L9,77 L7,82 L4,83 L4,85 L-1,89 L-5,93 L-6,96 L-6,107 L0,118 L6,121 L6,123 L1,121 L-3,118 L-9,105 L-9,94 L-3,86 L6,78 L11,70 L11,53 L4,6 L0,2 Z " fill="url(#RedBlueGradient)" transform="translate(440,52)"/>
</svg>